<svg xmlns="http://www.w3.org/2000/svg" version="1.1" xmlns:xlink="http://www.w3.org/1999/xlink" xmlns:svgjs="http://svgjs.com/svgjs" width="1440" height="560" preserveAspectRatio="none" viewBox="0 0 1440 560"><g mask="url(&quot;#SvgjsMask1017&quot;)" fill="none"><rect width="1440" height="560" x="0" y="0" fill="rgba(0, 0, 60, 1)"></rect><path d="M737.29 670.46C864.24 613.04 809.12 211.5 1051.18 209.94 1293.24 208.38 1511.41 441.32 1678.97 445.14" stroke="rgba(21, 51, 81, 0.58)" stroke-width="2"></path><path d="M383.3 584.25C561.33 565.3 673.21 179.43 973.38 178.48 1273.54 177.53 1408.88 361.14 1563.45 363.28" stroke="rgba(21, 51, 81, 0.58)" stroke-width="2"></path><path d="M171.94 629.93C316.78 608.53 389.39 268.55 629.94 264.94 870.49 261.33 858.94 334.94 1087.94 334.94 1316.94 334.94 1430.11 265.14 1545.94 264.94" stroke="rgba(21, 51, 81, 0.58)" stroke-width="2"></path><path d="M265.5 647.5C412.8 602.12 443.71 190.9 667.78 180.27 891.85 169.64 868.92 250.27 1070.06 250.27 1271.2 250.27 1370.26 180.53 1472.34 180.27" stroke="rgba(21, 51, 81, 0.58)" stroke-width="2"></path><path d="M136.48 608.72C286.07 581.81 350.81 213.32 593.96 208.31 837.11 203.3 822.7 278.31 1051.44 278.31 1280.18 278.31 1393.22 208.51 1508.92 208.31" stroke="rgba(21, 51, 81, 0.58)" stroke-width="2"></path></g><defs><mask id="SvgjsMask1017"><rect width="1440" height="560" fill="#ffffff"></rect></mask></defs></svg>